#!OML:ASF F:\VICON\USERDATA\INSTALL\Justin_Nancy\Justin_Nancy.ASF
:FULLY-SPECIFIED
:DEGREES
377
root -0.758505 17.2488 19.597 0.82929 -2.23498 -4.38329
lowerback 6.39372 1.54631 4.60793
upperback -0.72563 2.52676 2.43336
thorax -4.25467 1.17214 -0.311633
lowerneck -16.5317 -5.20402 -10.4509
upperneck 20.8689 -6.30556 7.7228
head 9.95033 -2.90084 3.59113
rclavicle 1.32316e-014 -2.38542e-015
rhumerus -26.4721 -5.40693 -79.6112
rradius 36.5628
rwrist 2.11064
rhand -15.4353 11.7542
rfingers 7.12502
rthumb 10.7449 -17.951
lclavicle 1.32316e-014 -2.38542e-015
lhumerus -36.7267 10.6843 81.9416
lradius 23.2743
lwrist -13.4542
lhand -10.3613 27.0359
lfingers 7.12502
lthumb 15.6357 56.424
rfemur 4.04717 6.30687 30.9397
rtibia 18.1617
rfoot -15.6235 -8.8541
rtoes 1.13168
lfemur -31.9028 -2.36774 -13.5978
ltibia 35.8024
lfoot -7.00486 9.56937
ltoes -6.19692
378
root -0.752672 17.2281 19.7734 1.05778 -2.42702 -4.58136
lowerback 6.24524 1.60285 4.74159
upperback -0.790326 2.60904 2.51588
thorax -4.23366 1.21047 -0.304492
lowerneck -16.4004 -5.16489 -10.4177
upperneck 20.7386 -6.25335 7.67227
head 9.87113 -2.8821 3.57488
rclavicle -1.56046e-014 -1.66979e-014
rhumerus -26.3059 -4.88983 -79.6349
rradius 36.9296
rwrist 1.6434
rhand -15.5391 11.8238
rfingers 7.12502
rthumb 10.6448 -17.8865
lclavicle -1.56046e-014 -1.66979e-014
lhumerus -37.2397 11.3051 81.6302
lradius 22.982
lwrist -13.7187
lhand -10.7195 26.0877
lfingers 7.12502
lthumb 15.2907 55.5024
rfemur 4.76747 6.3588 31.1418
rtibia 17.6239
rfoot -15.7518 -8.85108
rtoes 0.836065
lfemur -32.004 -3.02711 -12.9861
ltibia 33.0629
lfoot -7.00534 9.66566
ltoes -7.04096
379
root -0.742421 17.2112 19.9532 1.29079 -2.5951 -4.46335
lowerback 6.13172 1.68217 4.69024
upperback -0.850519 2.70252 2.43326
thorax -4.22682 1.25657 -0.36726
lowerneck -16.5923 -5.17416 -10.3258
upperneck 20.7749 -6.27223 7.66729
head 9.91828 -2.87987 3.55306
rclavicle 4.26766e-014 -3.18055e-015
rhumerus -25.9174 -4.74699 -79.6494
rradius 36.9295
rwrist 1.6703
rhand -15.5287 12.2692
rfingers 7.12502
rthumb 10.6548 -17.4407
lclavicle 4.26766e-014 -3.18055e-015
lhumerus -37.6778 11.6251 81.4168
lradius 22.8196
lwrist -13.773
lhand -10.708 25.8474
lfingers 7.12502
lthumb 15.3018 55.2613
rfemur 5.53004 6.16553 30.9103
rtibia 16.9328
rfoot -15.9101 -8.59757
rtoes 0.48483
lfemur -32.058 -3.91284 -12.6595
ltibia 30.4244
lfoot -7.18346 10.0018
ltoes -8.17484
380
root -0.736979 17.1933 20.1359 1.38914 -2.72772 -4.42644
lowerback 6.15539 1.73568 4.62607
upperback -0.836501 2.76956 2.42702
thorax -4.22552 1.29142 -0.344804
lowerneck -16.8857 -5.19087 -10.2368
upperneck 20.7511 -6.27995 7.63286
head 9.96116 -2.87343 3.52049
rclavicle -5.11995e-014 -1.86858e-014
rhumerus -25.4251 -4.471 -79.6332
rradius 36.822
rwrist 1.70463
rhand -15.695 12.6982
rfingers 7.12502
rthumb 10.4943 -17.0198
lclavicle -5.11995e-014 -1.86858e-014
lhumerus -37.8818 12.1087 81.2335
lradius 22.4675
lwrist -13.9236
lhand -10.6864 26.1488
lfingers 7.12502
lthumb 15.3225 55.5612
rfemur 6.46753 6.1642 30.8461
rtibia 16.1793
rfoot -15.9947 -8.35672
rtoes 1.23623
lfemur -32.0284 -4.84252 -12.1977
ltibia 27.9956
lfoot -7.39624 10.2482
ltoes -9.00571
381
root -0.729982 17.1732 20.3219 1.49761 -2.82154 -4.44491
lowerback 5.97122 1.77902 4.61319
upperback -0.678712 2.80656 2.44693
thorax -3.95727 1.31759 -0.31114
lowerneck -17.2704 -5.21853 -10.2845
upperneck 20.6263 -6.29128 7.76682
head 9.99621 -2.85828 3.56794
rclavicle 1.05107e-014 5.96354e-015
rhumerus -24.916 -4.34184 -79.6163
rradius 37.1648
rwrist 1.62051
rhand -15.3449 12.0591
rfingers 7.12502
rthumb 10.8321 -17.6415
lclavicle 1.05107e-014 5.96354e-015
lhumerus -37.7578 12.618 81.1022
lradius 21.9637
lwrist -14.0288
lhand -11.0519 25.5854
lfingers 7.12502
lthumb 14.9705 55.0243
rfemur 7.42055 6.04925 30.8048
rtibia 15.43
rfoot -16.0733 -8.0608
rtoes 1.54605
lfemur -32.0635 -5.7235 -11.7058
ltibia 25.8252
lfoot -7.50125 10.3375
ltoes -10.1652
382
root -0.725111 17.1547 20.5097 1.57318 -3.07652 -4.49835
lowerback 5.82681 1.87966 4.58185
upperback -0.601976 2.92601 2.48177
thorax -3.79489 1.38208 -0.261346
lowerneck -17.439 -5.23606 -10.3226
upperneck 20.6193 -6.30054 7.82133
head 10.0295 -2.85555 3.59026
rclavicle -2.51711e-014 -2.38542e-015
rhumerus -24.6735 -4.39636 -79.5662
rradius 37.5748
rwrist 1.53301
rhand -14.9237 11.303
rfingers 7.12502
rthumb 11.2384 -18.3759
lclavicle -2.51711e-014 -2.38542e-015
lhumerus -37.9602 12.7697 81.0892
lradius 21.6975
lwrist -13.8501
lhand -11.4243 24.7257
lfingers 7.12502
lthumb 14.6117 54.1909
rfemur 8.43502 5.97114 30.8012
rtibia 14.6478
rfoot -16.0874 -7.90533
rtoes 0.635602
lfemur -32.0846 -6.44545 -11.192
ltibia 23.9811
lfoot -8.09196 10.5575
ltoes -9.71909
383
root -0.718779 17.1365 20.6948 1.67812 -3.27622 -4.53714
lowerback 5.71478 1.94485 4.55965
upperback -0.649955 3.00692 2.50033
thorax -3.78084 1.42276 -0.233302
lowerneck -17.2992 -5.18584 -10.2398
upperneck 20.5735 -6.2504 7.76167
head 9.97674 -2.8356 3.5636
rclavicle 1.17531e-014 -5.96354e-015
rhumerus -24.5614 -4.34027 -79.5175
rradius 37.6013
rwrist 1.58321
rhand -15.1837 11.7967
rfingers 7.12502
rthumb 10.9876 -17.8958
lclavicle 1.17531e-014 -5.96354e-015
lhumerus -38.3998 12.945 80.9938
lradius 21.5017
lwrist -13.9787
lhand -11.1019 24.8382
lfingers 7.12502
lthumb 14.9223 54.2807
rfemur 9.43941 5.87795 30.7827
rtibia 13.8427
rfoot -16.1223 -7.78978
rtoes -0.482541
lfemur -32.2329 -7.0648 -10.7498
ltibia 22.5061
lfoot -9.1123 11.0359
ltoes -7.44869
384
root -0.704557 17.1159 20.8776 1.77644 -3.28946 -4.37325
lowerback 5.59425 1.93311 4.47093
upperback -0.728478 2.97812 2.42118
thorax -3.79548 1.40854 -0.260199
lowerneck -17.0986 -5.14659 -10.1096
upperneck 20.5494 -6.23374 7.69129
head 9.92179 -2.83001 3.52141
rclavicle -1.02871e-014 -1.59028e-015
rhumerus -24.4628 -4.2008 -79.504
rradius 37.3854
rwrist 1.83193
rhand -15.7842 12.872
rfingers 7.12502
rthumb 10.4083 -16.8504
lclavicle -1.02871e-014 -1.59028e-015
lhumerus -38.8135 13.1878 80.8133
lradius 21.316
lwrist -14.2689
lhand -10.7562 25.3045
lfingers 7.12502
lthumb 15.2553 54.7219
rfemur 10.3976 5.57534 30.4774
rtibia 13.147
rfoot -16.1853 -7.5293
rtoes -1.40475
lfemur -32.4387 -7.92222 -10.556
ltibia 21.3813
lfoot -10.2106 11.9894
ltoes -5.70813
385
root -0.69174 17.0918 21.0672 1.82486 -3.40722 -4.2982
lowerback 5.4636 1.94448 4.42513
upperback -0.788609 2.98211 2.35636
thorax -3.78281 1.41056 -0.298077
lowerneck -16.9229 -5.12479 -10.1161
upperneck 20.5878 -6.26279 7.85781
head 9.91122 -2.82974 3.58087
rclavicle -2.36057e-015 -6.36111e-015
rhumerus -24.4763 -4.04169 -79.5589
rradius 37.3871
rwrist 1.89884
rhand -16.0345 13.1926
rfingers 7.12502
rthumb 10.1669 -16.5418
lclavicle -2.36057e-015 -6.36111e-015
lhumerus -39.2148 13.5627 80.479
lradius 20.9868
lwrist -14.7065
lhand -10.8757 25.155
lfingers 7.12502
lthumb 15.1402 54.5812
rfemur 11.3149 5.47522 30.2952
rtibia 12.6182
rfoot -16.2291 -7.28055
rtoes -1.73858
lfemur -32.4729 -8.68394 -10.304
ltibia 20.5777
lfoot -11.1938 13.0838
ltoes -5.12417
386
root -0.687185 17.0648 21.2516 1.92211 -3.56702 -4.56245
lowerback 5.39033 2.0014 4.56209
upperback -0.800376 3.0661 2.44242
thorax -3.74878 1.45076 -0.289423
lowerneck -16.9791 -5.09651 -10.1757
upperneck 20.6513 -6.25206 8.04994
head 9.95173 -2.80705 3.66179
rclavicle -4.49005e-014 -1.86858e-014
rhumerus -24.4737 -4.11262 -79.5326
rradius 37.7215
rwrist 1.91217
rhand -15.8775 13.0034
rfingers 7.12502
rthumb 10.3183 -16.7235
lclavicle -4.49005e-014 -1.86858e-014
lhumerus -39.3699 13.7268 80.398
lradius 20.5581
lwrist -14.982
lhand -10.9611 24.5421
lfingers 7.12502
lthumb 15.0579 53.9744
rfemur 12.15 5.83508 30.6459
rtibia 12.1354
rfoot -16.0578 -7.39496
rtoes -1.96834
lfemur -32.5147 -8.77125 -9.92236
ltibia 20.1553
lfoot -11.8074 13.6661
ltoes -4.76245
